<svg xmlns="http://www.w3.org/2000/svg" xmlns:xlink="http://www.w3.org/1999/xlink" width="573.52" height="89.58" viewBox="0 0 573.52 89.58"><defs><style>.cls-1{fill:url(#Безымянный_градиент_13);}</style><linearGradient id="Безымянный_градиент_13" x1="129.74" y1="16.53" x2="23.07" y2="85.87" gradientUnits="userSpaceOnUse"><stop offset="0" stop-color="#00eafb"/><stop offset="1" stop-color="#003feb"/></linearGradient></defs><title>Ресdffурс 1</title><g id="Слой_2" data-name="Слой 2"><g id="Слой_1-2" data-name="Слой 1"><path d="M174.38,48.08c0,8.87,4.65,14.26,13,14.26a16.92,16.92,0,0,0,9.42-3,.63.63,0,0,1,1.05.25l.5,1a.79.79,0,0,1-.25,1.05,19.33,19.33,0,0,1-10.66,3.1c-10.11,0-15.75-6.32-15.75-16V35.87c0-4.77,1.36-8.68,4.09-11.59s6.63-4.4,11.66-4.4a18.67,18.67,0,0,1,10.66,3.29.7.7,0,0,1,.25,1l-.5,1a.65.65,0,0,1-1.05.25,16.75,16.75,0,0,0-9.42-3.1c-8.37,0-13,5.52-13,14.26Z"/><path d="M205.32,64a.66.66,0,0,1-.74-.74V43.56c0-7.5,4.46-12.4,13.45-12.4a15.64,15.64,0,0,1,7.25,1.74c.43.19.5.56.31,1l-.37.74a.68.68,0,0,1-1,.37A14.74,14.74,0,0,0,218,33.45c-7.25,0-10.85,4-10.85,10.66V63.27a.66.66,0,0,1-.74.74Z"/><path d="M232.29,31.9a.66.66,0,0,1,.74.74v17.3c0,8.25,2.91,12.52,9.86,12.52,3.66,0,7.19-2.17,9.86-6.32V32.65a.66.66,0,0,1,.74-.74h1.05a.66.66,0,0,1,.74.74V64.2c0,9.11-4.34,13.76-13.7,13.76a18.42,18.42,0,0,1-9.05-2.36.68.68,0,0,1-.31-1l.43-.81c.19-.43.56-.5,1-.31a16.05,16.05,0,0,0,7.87,2.17c6.63,0,11.22-2.36,11.22-11.47V58.93c-3,3.91-6.63,5.83-10.85,5.83-7.44,0-11.41-5.27-11.41-13.95V32.65a.66.66,0,0,1,.74-.74Z"/><path d="M287.84,50.81c0,8.49-4.21,13.95-11.72,13.95-4.34,0-8.06-1.92-11.22-5.83V76.42a.66.66,0,0,1-.74.74H263.1a.66.66,0,0,1-.74-.74V43.74c0-7.44,4.46-12.59,12.71-12.59,4.09,0,7.25,1.18,9.42,3.53a12.66,12.66,0,0,1,3.35,9.05Zm-2.54-6.2c0-7-3.78-11.16-10.23-11.16-6.7,0-10.17,4.22-10.17,11.16V56.14c2.73,4,6.45,6.32,10.23,6.32,7,0,10.17-4.34,10.17-12.52Z"/><path d="M292.43,32.65a.66.66,0,0,1,.74-.74h6V22.29a.66.66,0,0,1,.74-.74H301a.66.66,0,0,1,.74.74V31.9H313a.66.66,0,0,1,.74.74v.81a.66.66,0,0,1-.74.74H301.73V55.52c0,4.53,2.79,6.94,7.44,6.94a11.86,11.86,0,0,0,4.65-1,.73.73,0,0,1,1.05.37l.37.81c.25.5.13.81-.37,1a15.8,15.8,0,0,1-5.7,1.12c-6.2,0-10-3.29-10-9.05V34.2h-6a.66.66,0,0,1-.74-.74Z"/><path d="M319.58,52.36v-8.8c0-7.38,4.46-12.4,12.71-12.4s12.77,5,12.77,12.4v8.8c0,7.38-4.4,12.4-12.77,12.4S319.58,59.74,319.58,52.36Zm2.54-.74c0,6.88,3.47,10.73,10.17,10.73s10.23-3.78,10.23-10.73V44.3c0-6.94-3.53-10.73-10.23-10.73s-10.17,3.84-10.17,10.73Z"/><path d="M352.87,44.8a.66.66,0,0,1-.74-.74V42.94a.66.66,0,0,1,.74-.74H367.5a.66.66,0,0,1,.74.74v1.12a.66.66,0,0,1-.74.74Z"/><path d="M407.43,34.63a10.81,10.81,0,0,1-8.12,11L409,62c.68,1.18.25,2-1.18,2H403.4a2.14,2.14,0,0,1-2-1.18L391.87,46.6h-7.81V62.28A1.52,1.52,0,0,1,382.32,64h-4a1.52,1.52,0,0,1-1.74-1.74V22.36a1.52,1.52,0,0,1,1.74-1.74H392.8c8.93,0,14.63,4.34,14.63,12ZM400,32.71c0-4-2.54-6-7.69-6h-8.25v13.7h8.25c5.15,0,7.69-1.74,7.69-5.89Z"/><path d="M434.83,44.18c0-5.21-2.73-7.44-7.75-7.44a17.41,17.41,0,0,0-8,2.23,1.58,1.58,0,0,1-2.42-.62l-.93-1.74a1.52,1.52,0,0,1,.62-2.36,22.65,22.65,0,0,1,11.53-3.1c9.36,0,14.07,4.77,14.07,12.9V52c0,8.12-5,12.77-14.14,12.77-4.46,0-7.94-.93-10.42-2.85A8.6,8.6,0,0,1,413.76,55V53.91c0-5.77,4.59-9.49,12.71-9.49h8.37Zm-13.95,10.6c0,2.67,2.48,4.46,7,4.46s6.94-2.67,6.94-7.19V49.39h-7.75c-4,0-6.2,1.67-6.2,4.46Z"/><path d="M449,20.5a1.52,1.52,0,0,1,1.74-1.74h3.66a1.52,1.52,0,0,1,1.74,1.74v4a1.52,1.52,0,0,1-1.74,1.74h-3.66A1.52,1.52,0,0,1,449,24.53Zm0,13.14a1.52,1.52,0,0,1,1.74-1.74h3.66a1.52,1.52,0,0,1,1.74,1.74V62.28A1.52,1.52,0,0,1,454.43,64h-3.66A1.52,1.52,0,0,1,449,62.28Z"/><path d="M482.57,46.47c5.7,2,7.87,4.22,7.87,8.62,0,6.2-5.14,9.67-13.39,9.67a26.44,26.44,0,0,1-12.34-2.91,1.59,1.59,0,0,1-.74-2.36l1-2.11a1.52,1.52,0,0,1,2.36-.74,20.34,20.34,0,0,0,9.55,2.6c4,0,6.45-1.43,6.45-4.15,0-1.67-1.18-3-3.53-3.78l-7.87-2.67c-6.14-2-7.94-4.28-7.94-8.31,0-5.89,4.71-9.18,12.65-9.18a24.93,24.93,0,0,1,11.1,2.6,1.58,1.58,0,0,1,.74,2.36L487.59,38a1.56,1.56,0,0,1-2.36.81,19.16,19.16,0,0,0-8.43-2c-4,0-5.7,1.12-5.7,3.6,0,1.67,1.05,2.67,3.53,3.47Z"/><path d="M497.51,20.5a1.52,1.52,0,0,1,1.74-1.74h3.66a1.52,1.52,0,0,1,1.74,1.74v4a1.52,1.52,0,0,1-1.74,1.74h-3.66a1.52,1.52,0,0,1-1.74-1.74Zm0,13.14a1.52,1.52,0,0,1,1.74-1.74h3.66a1.52,1.52,0,0,1,1.74,1.74V62.28A1.52,1.52,0,0,1,502.91,64h-3.66a1.52,1.52,0,0,1-1.74-1.74Z"/><path d="M534.59,64a1.52,1.52,0,0,1-1.74-1.74v-17c0-5.52-2.23-8.25-6.76-8.25s-6.57,2.73-6.57,8.25v17A1.52,1.52,0,0,1,517.79,64h-3.66a1.52,1.52,0,0,1-1.74-1.74V44.05c0-7.87,4.77-12.9,13.76-12.9s13.83,5,13.83,12.9V62.28A1.52,1.52,0,0,1,538.25,64Z"/><path d="M545.31,44.05c0-7.19,4.53-12.9,14.07-12.9,9.18,0,14.13,5.27,14.13,12.9V63.77c0,9.49-5,14.2-15.06,14.2a20.65,20.65,0,0,1-10.29-2.6,1.6,1.6,0,0,1-.68-2.42l1-1.86a1.54,1.54,0,0,1,2.36-.68,16.55,16.55,0,0,0,7.63,1.92c5,0,7.94-2.17,7.94-8.31V60.73a11.74,11.74,0,0,1-9.18,4c-7.69,0-11.9-5.21-11.9-14.07Zm7.13,5.21c0,6.88,1.67,9.73,7.32,9.73a7.37,7.37,0,0,0,6.63-3.91V45.23c0-5.52-2.29-8.25-6.94-8.25s-7,2.73-7,8.25Z"/><path class="cls-1" d="M73.76,23c-9.6,0-19.2-.09-28.8,0-10.68.12-19.44,6.91-21.71,16.59-3.28,14,6.67,26.78,21.33,27.11,8.11.18,16.23.07,24.35,0a6.65,6.65,0,0,1,5.22,2c5.92,6,12,12,17.92,18,.61.61,1.74,1.15,1.39,2.15s-1.59.65-2.44.65c-15.66,0-31.33.28-47-.08C22.43,88.88,5.37,74.47.88,53.51-4.41,28.78,14.78,2.71,40,.91,61.54-.64,83.17.21,104.75.42c12.66.12,22.11,6.34,26.62,18.52C137,34.13,128.62,50.26,112.77,55c-3.25,1-2.63,1.81-.8,3.62Q125.73,72.27,139.38,86c.76.77,2.2,1.45,1.73,2.69s-2,.76-3.08.77c-7.89,0-15.78-.06-23.66.06A8.08,8.08,0,0,1,108,86.93C98.62,77.4,89.1,68,79.7,58.49a7.75,7.75,0,0,0-6-2.53c-9.49.09-19,.07-28.46,0-7.08,0-11.86-4.5-11.91-11s4.84-11.21,12-11.23c18.52-.05,37,0,55.55-.07a25.31,25.31,0,0,0,4.44-.25c3.46-.62,5-2.49,4.88-5.53C110,25,108,23.26,104.62,23c-1-.07-2.06,0-3.09,0H73.76Z"/></g></g></svg>